<svg id="visual" viewBox="0 0 1920 1080" width="1920" height="1080" xmlns="http://www.w3.org/2000/svg" xmlns:xlink="http://www.w3.org/1999/xlink" version="1.1"><rect x="0" y="0" width="1920" height="1080" fill="#ddf8fd"></rect><path d="M0 743L274 747L549 556L823 657L1097 712L1371 678L1646 713L1920 753L1920 1081L1646 1081L1371 1081L1097 1081L823 1081L549 1081L274 1081L0 1081Z" fill="#3049ff"></path><path d="M0 723L274 715L549 741L823 733L1097 655L1371 707L1646 791L1920 762L1920 1081L1646 1081L1371 1081L1097 1081L823 1081L549 1081L274 1081L0 1081Z" fill="#006bfc"></path><path d="M0 766L274 828L549 869L823 869L1097 854L1371 811L1646 769L1920 867L1920 1081L1646 1081L1371 1081L1097 1081L823 1081L549 1081L274 1081L0 1081Z" fill="#0083ee"></path><path d="M0 909L274 843L549 890L823 957L1097 946L1371 841L1646 911L1920 908L1920 1081L1646 1081L1371 1081L1097 1081L823 1081L549 1081L274 1081L0 1081Z" fill="#3094d8"></path><path d="M0 1003L274 976L549 995L823 975L1097 973L1371 928L1646 980L1920 980L1920 1081L1646 1081L1371 1081L1097 1081L823 1081L549 1081L274 1081L0 1081Z" fill="#6ba0be"></path></svg>