<svg id="visual" viewBox="0 0 1920 1080" width="1920" height="1080" xmlns="http://www.w3.org/2000/svg" xmlns:xlink="http://www.w3.org/1999/xlink" version="1.1"><rect x="0" y="0" width="1920" height="1080" fill="#d9a8fa"></rect><path d="M767 0L671 0L671 135L362 135L362 270L416 270L416 405L212 405L212 540L267 540L267 675L1183 675L1183 810L802 810L802 945L87 945L87 1080L0 1080L0 945L0 945L0 810L0 810L0 675L0 675L0 540L0 540L0 405L0 405L0 270L0 270L0 135L0 135L0 0L0 0Z" fill="#9900ff"></path><path d="M3 0L144 0L144 135L162 135L162 270L671 270L671 405L617 405L617 540L199 540L199 675L1032 675L1032 810L1044 810L1044 945L307 945L307 1080L0 1080L0 945L0 945L0 810L0 810L0 675L0 675L0 540L0 540L0 405L0 405L0 270L0 270L0 135L0 135L0 0L0 0Z" fill="#8701ef"></path><path d="M682 0L24 0L24 135L458 135L458 270L998 270L998 405L915 405L915 540L519 540L519 675L480 675L480 810L891 810L891 945L829 945L829 1080L0 1080L0 945L0 945L0 810L0 810L0 675L0 675L0 540L0 540L0 405L0 405L0 270L0 270L0 135L0 135L0 0L0 0Z" fill="#7501df"></path><path d="M428 0L319 0L319 135L801 135L801 270L249 270L249 405L111 405L111 540L391 540L391 675L872 675L872 810L433 810L433 945L785 945L785 1080L0 1080L0 945L0 945L0 810L0 810L0 675L0 675L0 540L0 540L0 405L0 405L0 270L0 270L0 135L0 135L0 0L0 0Z" fill="#6301cf"></path><path d="M493 0L633 0L633 135L726 135L726 270L451 270L451 405L619 405L619 540L496 540L496 675L697 675L697 810L610 810L610 945L50 945L50 1080L0 1080L0 945L0 945L0 810L0 810L0 675L0 675L0 540L0 540L0 405L0 405L0 270L0 270L0 135L0 135L0 0L0 0Z" fill="#5200bf"></path><path d="M94 0L281 0L281 135L45 135L45 270L495 270L495 405L547 405L547 540L477 540L477 675L402 675L402 810L486 810L486 945L476 945L476 1080L0 1080L0 945L0 945L0 810L0 810L0 675L0 675L0 540L0 540L0 405L0 405L0 270L0 270L0 135L0 135L0 0L0 0Z" fill="#3a00ab"></path><path d="M122 0L484 0L484 135L334 135L334 270L374 270L374 405L418 405L418 540L371 540L371 675L216 675L216 810L240 810L240 945L447 945L447 1080L0 1080L0 945L0 945L0 810L0 810L0 675L0 675L0 540L0 540L0 405L0 405L0 270L0 270L0 135L0 135L0 0L0 0Z" fill="#1b0098"></path><path d="M321 0L118 0L118 135L382 135L382 270L3 270L3 405L311 405L311 540L172 540L172 675L115 675L115 810L284 810L284 945L309 945L309 1080L0 1080L0 945L0 945L0 810L0 810L0 675L0 675L0 540L0 540L0 405L0 405L0 270L0 270L0 135L0 135L0 0L0 0Z" fill="#000085"></path><path d="M46 0L203 0L203 135L145 135L145 270L205 270L205 405L58 405L58 540L36 540L36 675L242 675L242 810L121 810L121 945L251 945L251 1080L0 1080L0 945L0 945L0 810L0 810L0 675L0 675L0 540L0 540L0 405L0 405L0 270L0 270L0 135L0 135L0 0L0 0Z" fill="#000000"></path></svg>